<?xml version="1.0" standalone="no"?>
<!DOCTYPE svg PUBLIC "-//W3C//DTD SVG 20010904//EN"
 "http://www.w3.org/TR/2001/REC-SVG-20010904/DTD/svg10.dtd">
<svg version="1.0" xmlns="http://www.w3.org/2000/svg"
 width="75.000000pt" height="75.000000pt" viewBox="0 0 75.000000 75.000000"
 preserveAspectRatio="xMidYMid meet">
<metadata>
Created by potrace 1.14, written by Peter Selinger 2001-2017
</metadata>
<g transform="translate(0.000000,75.000000) scale(0.100000,-0.100000)"
fill="#000000" stroke="none">
<path d="M150 724 c-30 -26 -56 -71 -66 -116 -2 -10 -6 -28 -9 -40 -4 -13 -5
-52 -4 -88 4 -105 2 -153 -6 -182 -13 -48 3 -95 45 -137 22 -22 40 -43 40 -47
0 -22 66 -114 82 -114 26 0 22 21 -17 86 -19 32 -35 64 -35 71 0 7 -5 13 -11
13 -31 0 -74 79 -64 117 5 23 25 33 25 13 0 -5 4 -10 9 -10 6 0 11 17 14 38
l3 37 8 -32 c14 -54 48 -83 99 -83 51 0 82 22 98 69 9 25 14 29 25 20 8 -6 14
-17 14 -25 0 -7 11 -25 25 -39 52 -51 150 -24 164 47 9 42 27 46 35 8 3 -17
10 -29 16 -25 5 3 12 -5 16 -19 7 -31 -22 -95 -50 -107 -12 -6 -29 -30 -39
-54 -10 -24 -27 -54 -38 -66 -26 -30 -25 -61 1 -57 12 2 20 7 20 12 -1 5 2 12
8 15 5 3 22 28 37 55 16 28 41 61 55 75 41 41 53 74 46 122 -8 50 -8 64 -5
169 4 112 -23 173 -93 209 -15 8 -37 22 -47 33 -11 10 -24 18 -30 18 -5 0 -11
6 -14 13 -3 9 -40 12 -138 12 -74 1 -146 4 -160 9 -20 6 -33 2 -59 -20z m394
-214 c5 -19 13 -37 16 -40 8 -6 40 -66 40 -75 0 -3 -6 -3 -12 2 -19 12 -401
13 -415 1 -15 -12 -18 3 -4 18 6 5 14 31 18 59 l8 49 95 3 c52 1 118 7 145 12
82 15 98 11 109 -29z m-223 -140 c37 -20 17 -80 -32 -99 -61 -23 -130 54 -87
97 15 15 92 16 119 2z m238 -4 c14 -17 10 -44 -9 -73 -36 -50 -130 -20 -130
42 0 13 8 29 18 34 25 15 108 13 121 -3z"/>
<path d="M263 195 c-58 -59 -57 -69 12 -68 36 1 42 3 79 28 29 20 38 22 42 11
3 -8 24 -22 46 -31 32 -13 47 -14 74 -5 l33 11 -27 31 c-55 63 -57 64 -138 66
l-77 1 -44 -44z"/>
</g>
</svg>
